<svg width="26" height="26" viewBox="0 0 26 26" fill="none" xmlns="http://www.w3.org/2000/svg">
<g clip-path="url(#clip0_5_524)">
<path d="M9.19042 12.5824C9.19042 11.5127 9.61539 10.4867 10.3718 9.73027C11.1283 8.97383 12.1542 8.54887 13.224 8.54887C14.2937 8.54887 15.3197 8.97383 16.0761 9.73027C16.8326 10.4867 17.2575 11.5127 17.2575 12.5824C17.2575 13.652 16.8326 14.6778 16.0763 15.4341C15.32 16.1904 14.2942 16.6153 13.2246 16.6153C12.155 16.6153 11.1293 16.1904 10.3729 15.4341C9.61663 14.6778 9.19042 13.652 9.19042 12.5824ZM7.01148 12.5824C6.99949 13.4059 7.15133 14.2235 7.45816 14.9877C7.76499 15.752 8.22069 16.4476 8.79876 17.0341C9.37683 17.6207 10.0657 18.0864 10.8254 18.4044C11.5851 18.7223 12.4004 18.886 13.224 18.886C14.0475 18.886 14.8628 18.7223 15.6225 18.4044C16.3822 18.0864 17.0711 17.6207 17.6492 17.0341C18.2273 16.4476 18.683 15.752 18.9898 14.9877C19.2966 14.2235 19.4485 13.4059 19.4365 12.5824C19.4127 10.9504 18.7477 9.39331 17.5853 8.24762C16.4228 7.10193 14.8561 6.45968 13.224 6.45968C11.5918 6.45968 10.0252 7.10193 8.86269 8.24762C7.70021 9.39331 7.03523 10.9504 7.01148 12.5824ZM18.2299 6.12321C18.2299 6.50847 18.3829 6.87796 18.6554 7.15038C18.9278 7.4228 19.2973 7.57584 19.6825 7.57584C20.0678 7.57584 20.4373 7.4228 20.7097 7.15038C20.9821 6.87796 21.1352 6.50847 21.1352 6.12321C21.1352 5.73795 20.9821 5.36847 20.7097 5.09605C20.4373 4.82362 20.0678 4.67058 19.6825 4.67058C19.2973 4.67058 18.9278 4.82362 18.6554 5.09605C18.3829 5.36847 18.2299 5.73795 18.2299 6.12321ZM8.33516 22.4324C7.1549 22.3785 6.51411 22.1824 6.08911 22.0153C5.56321 21.8215 5.0875 21.5121 4.697 21.1101C4.29507 20.72 3.98572 20.2447 3.79174 19.7193C3.62595 19.2929 3.42858 18.6522 3.37463 17.4719C3.31674 16.1956 3.3049 15.814 3.3049 12.5824C3.3049 9.35216 3.31805 8.96795 3.37463 7.69295C3.4299 6.51268 3.62463 5.87321 3.79174 5.4469C4.01148 4.88111 4.27332 4.47847 4.697 4.05479C5.0875 3.65273 5.56321 3.34338 6.08911 3.14953C6.51542 2.98374 7.1549 2.78637 8.33516 2.73242C9.61148 2.67453 9.99306 2.66137 13.2233 2.66137C16.4536 2.66137 16.8365 2.67453 18.1128 2.73242C19.2917 2.78637 19.9325 2.98374 20.3588 3.14953C20.9246 3.36926 21.3273 3.63111 21.7509 4.05479C22.1746 4.47847 22.4352 4.88111 22.6549 5.4469C22.8207 5.87321 23.0181 6.51268 23.072 7.69295C23.1299 8.96926 23.1417 9.35084 23.1417 12.5824C23.1417 15.8127 23.1299 16.1969 23.072 17.4719C23.0181 18.6522 22.822 19.2929 22.6549 19.7193C22.4616 20.2447 22.1527 20.72 21.7509 21.1101C21.3605 21.5121 20.8847 21.8215 20.3588 22.0153C19.9325 22.1811 19.2917 22.3785 18.1128 22.4324C16.8365 22.4903 16.4549 22.5022 13.2233 22.5022C9.99306 22.5022 9.61016 22.489 8.33516 22.4324ZM8.23516 0.55479C6.947 0.614001 6.06805 0.817948 5.29832 1.11795C4.49125 1.42135 3.76018 1.89735 3.15621 2.51269C2.54009 3.11729 2.06361 3.84929 1.76016 4.65742C1.46016 5.42453 1.25621 6.30479 1.19832 7.59295C1.13779 8.88242 1.12463 9.29426 1.12463 12.5811C1.12463 15.8679 1.13779 16.2785 1.19832 17.5693C1.25621 18.8587 1.46148 19.7377 1.76016 20.5061C2.06436 21.3135 2.54023 22.0453 3.1549 22.6508C3.76043 23.2655 4.4922 23.7414 5.29963 24.0456C6.06805 24.3456 6.947 24.5495 8.23648 24.6074C9.52595 24.6666 9.93779 24.6798 13.2233 24.6798C16.5102 24.6798 16.922 24.6666 18.2128 24.6074C19.5009 24.5482 20.3799 24.3443 21.1496 24.0456C21.957 23.7419 22.6884 23.266 23.2931 22.6508C23.9084 22.0458 24.3843 21.3139 24.6878 20.5061C24.9865 19.7377 25.1917 18.8574 25.2509 17.5693C25.3102 16.2798 25.3233 15.8679 25.3233 12.5811C25.3233 9.29426 25.3102 8.88374 25.2509 7.59295C25.1917 6.30347 24.9878 5.42453 24.6878 4.65479C24.384 3.84752 23.9081 3.1161 23.2931 2.51137C22.6885 1.89614 21.957 1.42017 21.1496 1.11663C20.3799 0.817948 19.5009 0.614001 18.2128 0.55479C16.922 0.496896 16.5102 0.482422 13.2246 0.482422C9.93911 0.482422 9.52595 0.49558 8.23516 0.55479Z" fill="black"/>
</g>
<defs>
<clipPath id="clip0_5_524">
<rect width="25" height="25" fill="white" transform="translate(0.89563 0.482422)"/>
</clipPath>
</defs>
</svg>
