<svg width="19" height="17" viewBox="0 0 19 17" fill="none" xmlns="http://www.w3.org/2000/svg">
<path d="M5.72519 2.28485H6.03319C6.64919 2.36185 7.26519 2.51585 7.65019 2.82385C7.95819 2.97785 8.18919 3.20885 8.34319 3.43985L9.49819 4.74885L10.6532 3.43985C10.9612 3.13185 11.2692 2.82385 11.6542 2.66985C12.1932 2.43885 12.7322 2.28485 13.3482 2.28485C14.0412 2.28485 14.6572 2.43885 15.1962 2.82385C15.6582 3.13185 16.1202 3.51685 16.3512 4.05585C16.6592 4.51785 16.8132 5.13385 16.8132 5.67285V5.98085C16.7362 6.67385 16.5052 7.44385 16.1972 8.21385C15.8122 9.06085 15.2732 9.90785 14.5032 10.7548C13.6562 11.6788 12.5782 12.6028 11.2692 13.4498C10.9612 13.6808 10.5762 13.8348 10.2682 14.0658C10.1142 14.1428 9.88319 14.2968 9.72919 14.3738C9.65219 14.3738 9.65219 14.4508 9.57519 14.4508C8.95919 14.1428 8.34319 13.7578 7.72719 13.3728C6.49519 12.5258 5.41719 11.6018 4.57019 10.6778C3.80019 9.83085 3.26119 8.98385 2.95319 8.13685C2.64519 7.36685 2.41419 6.59685 2.33719 5.90385C2.26019 4.97985 2.56819 4.05585 3.26119 3.36285C3.80019 2.66985 4.80119 2.28485 5.72519 2.28485ZM5.72519 0.744847C4.33919 0.744847 2.95319 1.36085 2.02919 2.36185C1.10519 3.36285 0.643192 4.74885 0.720192 6.05785C0.797192 6.98185 1.02819 7.90585 1.41319 8.75285C1.87519 9.83085 2.56819 10.8318 3.33819 11.6788C4.33919 12.8338 5.49419 13.8348 6.80319 14.6818C7.57319 15.1438 8.34319 15.6058 9.11319 15.9908C9.26719 16.0678 9.34419 16.0678 9.49819 16.0678H9.65219C9.72919 16.0678 9.88319 15.9908 9.96019 15.9138C10.0372 15.8368 10.1912 15.8368 10.2682 15.7598C10.4992 15.6828 10.6532 15.5288 10.8842 15.4518C11.2692 15.2208 11.6542 14.9898 11.9622 14.7588C13.2712 13.9118 14.5032 12.9108 15.5042 11.7558C16.2742 10.8318 16.9672 9.90785 17.4292 8.82985C17.8142 7.98285 18.1222 7.05885 18.1992 6.05785V5.59585C18.1992 4.74885 17.9682 3.90185 17.5832 3.20885C17.1982 2.51585 16.5822 1.89985 15.8892 1.43785C15.1192 0.898847 14.1952 0.667847 13.1942 0.667847C12.3472 0.667847 11.5772 0.898847 10.8072 1.20685C10.2682 1.51485 9.80619 1.89985 9.34419 2.36185C9.03619 2.05385 8.72819 1.74585 8.34319 1.51485C7.65019 1.05285 6.80319 0.821847 5.95619 0.744847H5.72519Z" fill="white" stroke="white" stroke-width="0.7"/>
</svg>
