<svg width="19" height="19" viewBox="0 0 19 19" fill="none" xmlns="http://www.w3.org/2000/svg">
<g clip-path="url(#clip0_5_547)">
<path fill-rule="evenodd" clip-rule="evenodd" d="M7.79174 6.85296C7.79174 7.97623 8.23795 9.0535 9.03222 9.84777C9.8265 10.642 10.9038 11.0883 12.027 11.0883C13.1503 11.0883 14.2276 10.642 15.0218 9.84777C15.8161 9.0535 16.2623 7.97623 16.2623 6.85296C16.2623 5.72969 15.8161 4.65243 15.0218 3.85816C14.2276 3.06388 13.1503 2.61767 12.027 2.61767C10.9038 2.61767 9.8265 3.06388 9.03222 3.85816C8.23795 4.65243 7.79174 5.72969 7.79174 6.85296ZM8.34656 12.0306C9.6452 12.9532 11.243 13.3542 12.8234 13.1542C14.4038 12.9542 15.8514 12.1678 16.8793 10.9508C17.9071 9.73386 18.4403 8.17513 18.3731 6.58356C18.3059 4.992 17.6433 3.48376 16.5165 2.35775C15.3897 1.23173 13.8809 0.570136 12.2893 0.504067C10.6977 0.437998 9.13937 0.97228 7.92312 2.00103C6.70686 3.02978 5.92147 4.47791 5.7226 6.05843C5.52373 7.63895 5.92589 9.23651 6.84938 10.5345L1.3795 16.0033C1.18663 16.203 1.0799 16.4705 1.08232 16.7481C1.08473 17.0257 1.19608 17.2913 1.3924 17.4876C1.58871 17.6839 1.85428 17.7953 2.1319 17.7977C2.40952 17.8001 2.67698 17.6934 2.87668 17.5005L8.3455 12.0327L8.34656 12.0306Z" fill="black"/>
</g>
<defs>
<clipPath id="clip0_5_547">
<rect width="18" height="18" fill="white" transform="translate(0.380005 0.5)"/>
</clipPath>
</defs>
</svg>
