<svg width="19" height="18" viewBox="0 0 19 18" fill="none" xmlns="http://www.w3.org/2000/svg">
<g clip-path="url(#clip0_5_550)">
<path fill-rule="evenodd" clip-rule="evenodd" d="M7.37997 4C7.37997 3.46957 7.59068 2.96086 7.96575 2.58579C8.34083 2.21071 8.84953 2 9.37997 2C9.9104 2 10.4191 2.21071 10.7942 2.58579C11.1693 2.96086 11.38 3.46957 11.38 4H7.37997ZM5.37997 6V7C5.37997 7.26522 5.48532 7.51957 5.67286 7.70711C5.8604 7.89464 6.11475 8 6.37997 8C6.64518 8 6.89954 7.89464 7.08707 7.70711C7.27461 7.51957 7.37997 7.26522 7.37997 7V6H11.38V7C11.38 7.26522 11.4853 7.51957 11.6729 7.70711C11.8604 7.89464 12.1147 8 12.38 8C12.6452 8 12.8995 7.89464 13.0871 7.70711C13.2746 7.51957 13.38 7.26522 13.38 7V6H15.46L16.293 16H2.46697L3.29997 6H5.37997ZM5.37997 4C5.37997 2.93913 5.80139 1.92172 6.55154 1.17157C7.30169 0.421427 8.3191 0 9.37997 0C10.4408 0 11.4582 0.421427 12.2084 1.17157C12.9585 1.92172 13.38 2.93913 13.38 4H16.38C16.6309 3.99989 16.8727 4.09411 17.0574 4.26398C17.2421 4.43385 17.3561 4.66694 17.377 4.917L18.377 16.917C18.3885 17.0549 18.3712 17.1936 18.3263 17.3245C18.2814 17.4554 18.2098 17.5755 18.1161 17.6773C18.0224 17.7791 17.9086 17.8603 17.7819 17.9159C17.6552 17.9714 17.5183 18.0001 17.38 18H1.37997C1.24161 18.0001 1.10475 17.9714 0.978034 17.9159C0.851319 17.8603 0.737509 17.7791 0.643802 17.6773C0.550095 17.5755 0.47853 17.4554 0.433633 17.3245C0.388736 17.1936 0.371484 17.0549 0.382967 16.917L1.38297 4.917C1.40379 4.66694 1.51787 4.43385 1.70256 4.26398C1.88724 4.09411 2.12904 3.99989 2.37997 4H5.37997Z" fill="black"/>
</g>
<defs>
<clipPath id="clip0_5_550">
<rect width="18" height="18" fill="white" transform="translate(0.380005)"/>
</clipPath>
</defs>
</svg>
