<svg width="59" height="25" viewBox="0 0 59 25" fill="none" xmlns="http://www.w3.org/2000/svg">
<g clip-path="url(#clip0_5_553)">
<path d="M47.1572 15.7367C43.6382 15.7367 42.997 13.6765 42.997 13.1657H45.5455C45.5455 13.4657 45.9467 13.825 46.285 13.9712C46.566 14.0803 46.8666 14.1293 47.1677 14.1152H47.1632C47.881 14.1152 48.4697 13.939 48.4697 13.5167C48.4697 13.0022 47.8667 12.8882 47.2022 12.7922C45.3925 12.5275 42.8567 12.22 42.8567 10.1687C42.8567 8.25548 44.9185 7.28198 47.107 7.28198C50.611 7.28198 51.5395 9.24923 51.5395 9.81848H48.9497C48.9344 9.67406 48.8827 9.53587 48.7996 9.41679C48.7164 9.29771 48.6045 9.20162 48.4742 9.13748L48.469 9.13523C48.154 8.97315 47.8054 8.8871 47.4512 8.88398H47.4497C46.4822 8.88398 45.9377 9.08798 45.9377 9.53723C45.9377 9.90398 46.4282 10.0862 47.1332 10.2085C48.973 10.5287 51.7975 10.6397 51.7975 12.9077C51.7975 14.0597 50.8127 15.7352 47.158 15.7352L47.1572 15.7367ZM42.8342 8.48048L41.842 9.57398H41.4295L41.884 8.38148H40.975V6.79148H42.8342V8.48048ZM37.0667 7.47323H40.36V15.508H37.0667V7.47323ZM32.7722 15.5237H29.8945L25.5977 7.48823H29.4752L31.9412 12.3722L32.0087 12.5192L32.0702 12.3722L34.3757 7.48823H36.7037L32.7722 15.5237ZM26.59 12.1855H19.9255C19.9337 12.4414 19.9937 12.6929 20.1018 12.925C20.2099 13.1571 20.3639 13.3649 20.5544 13.5358C20.7449 13.7068 20.9681 13.8375 21.2105 13.9199C21.4529 14.0023 21.7094 14.0348 21.9647 14.0155L21.958 14.0162C22.2993 14.0334 22.6395 13.9644 22.9471 13.8155C23.2547 13.6666 23.5199 13.4426 23.7182 13.1642L23.7227 13.1582H26.38C25.5115 15.181 23.8262 15.7555 21.5297 15.7555C18.5425 15.7555 16.4305 14.1167 16.4305 11.5202C16.4305 8.74748 18.511 7.28423 21.5297 7.28423C24.907 7.28423 26.6005 9.50198 26.6005 11.6365C26.6092 11.8248 26.6049 12.0135 26.5877 12.2012L26.59 12.1855ZM16.3742 15.511H8.77896V7.49498H12.1937V13.33H16.3742V15.511ZM55.282 0.939979C55.306 0.990229 55.333 1.03898 55.3555 1.09073C55.5565 1.54598 55.6735 2.07773 55.6735 2.63648V2.67023V2.66873V2.70923C55.6735 3.27473 55.5565 3.81248 55.3457 4.29998L55.3555 4.27373C55.1524 4.74922 54.8613 5.18206 54.4975 5.54948C54.144 5.90464 53.7247 6.18743 53.263 6.38198L53.2375 6.39173C52.7588 6.59172 52.245 6.69397 51.7262 6.69248H51.7H51.7015H51.6797C51.1322 6.69248 50.6102 6.58223 50.1355 6.38198L50.1617 6.39173C49.6871 6.19662 49.2552 5.91049 48.8905 5.54948C48.5306 5.19013 48.2415 4.76625 48.0385 4.29998L48.0287 4.27373C47.8168 3.77945 47.7083 3.24702 47.71 2.70923V2.66648V2.66873V2.63648C47.71 2.07773 47.827 1.54673 48.0385 1.06598L48.0287 1.09073C48.0512 1.03898 48.0782 0.990229 48.103 0.939979H1.10571L6.66246 24.94C18.3287 17.338 29.5405 24.6437 29.992 24.922H29.9935L29.9965 24.9197H30.0025L30.0055 24.9212L30.0077 24.922C30.4577 24.643 41.671 17.338 53.3365 24.94L58.8925 0.939979H55.282ZM21.466 8.96423H21.4532C21.0458 8.96423 20.6552 9.12606 20.3671 9.41411C20.079 9.70217 19.9172 10.0929 19.9172 10.5002L19.9187 10.5752V10.5715H23.1445C23.1586 10.3498 23.1239 10.1278 23.043 9.92099C22.9621 9.71417 22.8368 9.5276 22.676 9.37439C22.5152 9.22118 22.3228 9.10507 22.1123 9.03421C21.9019 8.96334 21.6784 8.93946 21.4577 8.96423L21.4645 8.96348L21.466 8.96423ZM49.3675 5.12573C49.6645 5.43786 50.022 5.68631 50.418 5.85599C50.8141 6.02567 51.2406 6.11301 51.6715 6.11273H51.703H51.7015H51.7292C52.183 6.11273 52.6142 6.01598 53.0035 5.84198L52.984 5.85023C53.3721 5.67933 53.7228 5.43365 54.016 5.12723L54.0175 5.12573C54.3062 4.82048 54.5387 4.45898 54.6977 4.05998L54.706 4.03748C54.8635 3.64223 54.955 3.18323 54.955 2.70398V2.66723V2.66873V2.64173C54.9555 2.18332 54.8679 1.72908 54.697 1.30373L54.7052 1.32773C54.6489 1.18872 54.5838 1.05345 54.5102 0.922729L54.5192 0.939979H53.3927C53.503 1.13948 53.5675 1.37798 53.5675 1.63148L53.5667 1.68398V1.68173C53.5818 1.85258 53.5583 2.02463 53.4978 2.18512C53.4373 2.34561 53.3414 2.4904 53.2172 2.60873L53.2165 2.60948C52.9802 2.80448 52.681 2.93198 52.354 2.95823H52.3487L53.6725 5.02898H52.8992L51.64 3.01223H50.8772V5.02898H50.158V0.939979H48.8657C48.8057 1.04498 48.7435 1.17248 48.6887 1.30373L48.6797 1.32698C48.5138 1.74459 48.4292 2.1901 48.4307 2.63948V2.66873V2.66723V2.70323C48.4307 3.18248 48.5222 3.64073 48.6887 4.06073L48.6797 4.03598C48.8462 4.45823 49.0787 4.81973 49.369 5.12648L49.3675 5.12573ZM52.0892 2.40548C52.231 2.39723 52.3622 2.36498 52.483 2.31173L52.4755 2.31473C52.5854 2.2668 52.6788 2.18749 52.744 2.08673L52.7455 2.08448C52.81 1.97198 52.8475 1.83773 52.8475 1.69448L52.846 1.64798V1.65023L52.8467 1.61798C52.8467 1.49617 52.8149 1.37648 52.7545 1.27073L52.756 1.27448C52.6987 1.18495 52.6194 1.11161 52.5257 1.06148L52.5227 1.05998C52.4216 1.00792 52.3122 0.973905 52.1995 0.959479L52.1942 0.958729C52.1417 0.950922 52.0889 0.944919 52.036 0.940729H50.8765V2.42198H51.628C51.7905 2.42198 51.944 2.41673 52.0885 2.40623L52.0892 2.40548Z" fill="#C41320"/>
</g>
<defs>
<clipPath id="clip0_5_553">
<rect width="58" height="24" fill="white" transform="translate(0.97998 0.940002)"/>
</clipPath>
</defs>
</svg>
