<svg width="26" height="19" viewBox="0 0 26 19" fill="none" xmlns="http://www.w3.org/2000/svg">
<path d="M25.3734 3.70459C25.2322 3.17244 24.9536 2.68675 24.5656 2.29623C24.1775 1.90571 23.6936 1.62409 23.1623 1.47959C21.2081 0.95459 13.3956 0.95459 13.3956 0.95459C13.3956 0.95459 5.58313 0.95459 3.62896 1.47959C3.09777 1.62421 2.61391 1.90588 2.22584 2.29638C1.83778 2.68688 1.55915 3.1725 1.41785 3.70459C0.89563 5.66709 0.89563 9.76015 0.89563 9.76015C0.89563 9.76015 0.89563 13.8546 1.41785 15.8185C1.55936 16.3503 1.83809 16.8356 2.22614 17.2259C2.61419 17.6161 3.09794 17.8976 3.62896 18.0421C5.58313 18.5685 13.3956 18.5685 13.3956 18.5685C13.3956 18.5685 21.2081 18.5685 23.1623 18.0421C23.6934 17.8977 24.1772 17.6163 24.5653 17.226C24.9533 16.8358 25.232 16.3504 25.3734 15.8185C25.8956 13.8546 25.8956 9.76015 25.8956 9.76015C25.8956 9.76015 25.8956 5.6657 25.3734 3.7032V3.70459ZM10.8387 13.4782V6.04348L17.3734 9.76153L10.8387 13.4782Z" fill="black"/>
</svg>
